<svg width="45" height="45" viewBox="0 0 1357 1138" fill="none" xmlns="http://www.w3.org/2000/svg">
<path d="M910.793 2.71875C700.293 5.70312 123.96 17.5677 47.5955 28.9063C-30.3159 40.4531 -4.07637 153.271 65.1736 158.62C224.398 170.943 1323.25 172.089 1273.08 172.089C1383.79 172.089 1383.95 0 1273.08 0C1321.22 0 996.637 1.46354 910.793 2.71875Z" fill="black"/>
<path d="M910.793 485.375C700.293 488.364 123.96 500.224 47.5955 511.568C-30.3159 523.114 -4.07637 635.932 65.1736 641.281C224.398 653.599 1323.25 654.75 1273.08 654.75C1383.79 654.75 1383.95 482.661 1273.08 482.661C1321.22 482.641 996.637 484.104 910.793 485.375Z" fill="black"/>
<path d="M910.793 968.016C700.293 971 123.96 982.865 47.5955 994.203C-30.3159 1005.76 -4.07637 1118.57 65.1736 1123.92C224.398 1136.24 1323.25 1137.39 1273.08 1137.39C1383.79 1137.39 1383.95 965.302 1273.08 965.302C1321.22 965.281 996.637 966.761 910.793 968.016Z" fill="black"/>
</svg>
